<?xml version="1.0" encoding="UTF-8" ?>
<!DOCTYPE svg PUBLIC "-//W3C//DTD SVG 1.1//EN" "http://www.w3.org/Graphics/SVG/1.1/DTD/svg11.dtd">
<svg width="410pt" height="128pt" viewBox="0 0 410 128" version="1.1" xmlns="http://www.w3.org/2000/svg">
<g id="#00aaeeff">
<path fill="#00aaee" opacity="1.00" d=" M 6.78 8.71 C 10.63 5.28 15.92 4.20 20.94 4.24 C 46.66 4.26 72.37 4.25 98.09 4.25 C 103.81 4.19 109.90 5.87 113.72 10.37 C 117.23 13.98 118.66 19.05 118.73 23.98 C 118.79 44.43 118.70 64.89 118.78 85.34 C 105.74 81.57 92.92 77.10 80.13 72.56 C 84.92 64.65 88.10 55.89 90.54 47.01 C 82.61 46.99 74.69 47.01 66.76 47.00 C 66.76 44.41 66.75 41.83 66.72 39.24 C 76.39 39.28 86.06 39.20 95.73 39.29 C 95.76 37.58 95.79 35.87 95.84 34.17 C 85.79 34.38 75.74 34.11 65.69 34.31 C 65.80 29.69 65.73 25.06 65.78 20.43 C 61.57 20.64 57.33 20.20 53.14 20.76 C 52.88 21.05 52.37 21.62 52.11 21.90 C 51.80 26.01 52.09 30.13 52.00 34.24 C 42.33 34.25 32.67 34.25 23.01 34.24 C 23.00 35.91 23.00 37.58 23.00 39.25 C 33.00 39.25 43.00 39.26 52.99 39.25 C 53.00 42.08 53.00 44.92 52.99 47.75 C 45.00 47.75 37.00 47.75 29.00 47.75 C 29.00 49.50 29.00 51.25 29.00 53.00 C 44.66 53.01 60.33 52.98 76.00 53.01 C 73.72 58.24 71.03 63.28 68.25 68.25 C 59.40 65.56 50.46 63.09 41.32 61.60 C 31.93 60.30 22.00 62.64 14.44 68.42 C 7.27 75.64 6.64 88.67 14.16 95.90 C 22.12 103.67 34.71 104.63 44.98 101.70 C 56.17 99.04 65.31 91.32 72.54 82.68 C 88.16 89.72 103.92 96.44 119.63 103.29 C 119.64 108.87 117.19 114.26 113.15 118.08 C 109.50 121.79 104.08 122.96 99.04 123.00 C 73.02 123.01 47.00 122.99 20.98 123.01 C 15.68 123.07 9.97 121.85 6.17 117.88 C 2.35 114.44 0.45 109.43 0.00 104.40 L 0.00 22.69 C 0.45 17.42 2.48 12.04 6.78 8.71 Z" />
<path fill="#00aaee" opacity="1.00" d=" M 12.86 81.07 C 14.90 73.60 22.91 69.59 29.98 68.31 C 41.49 67.83 52.34 72.66 62.40 77.73 C 57.02 85.01 50.04 91.40 41.51 94.72 C 34.20 97.07 25.70 97.17 18.99 93.04 C 14.87 90.70 11.90 85.90 12.86 81.07 Z" />
</g>
<g id="#3f3a39ff">
<path fill="#3f3a39" opacity="1.00" d=" M 368.24 6.01 C 373.33 5.99 378.42 5.99 383.51 6.02 C 383.50 8.60 383.50 11.18 383.51 13.76 C 391.67 13.75 399.82 13.75 407.98 13.76 C 408.48 14.31 409.49 15.40 410.00 15.94 L 410.00 26.50 C 405.17 26.50 400.35 26.51 395.52 26.49 C 395.50 24.24 395.47 21.98 395.43 19.72 C 382.37 19.79 369.31 19.72 356.25 19.76 C 356.25 22.26 356.25 24.75 356.24 27.24 C 351.41 27.26 346.59 27.26 341.76 27.24 C 341.74 23.00 341.74 18.76 341.76 14.51 C 350.60 14.46 359.44 14.59 368.28 14.44 C 368.25 11.63 368.24 8.82 368.24 6.01 Z" />
<path fill="#3f3a39" opacity="1.00" d=" M 179.27 8.29 C 183.60 7.03 188.46 8.10 192.99 7.76 C 193.00 11.42 193.00 15.09 193.01 18.76 C 202.17 18.75 211.34 18.75 220.50 18.76 C 220.50 20.50 220.50 22.25 220.50 24.00 C 211.33 24.00 202.17 23.99 193.00 24.00 C 192.99 26.83 193.00 29.66 193.02 32.49 C 201.02 32.62 209.01 33.04 217.01 33.28 C 213.72 46.30 205.42 57.62 194.85 65.74 C 203.49 71.34 212.76 75.87 222.36 79.57 C 222.30 81.21 222.25 82.86 222.21 84.50 C 209.93 81.69 198.08 77.00 187.10 70.84 C 175.89 77.09 163.78 81.71 151.25 84.50 C 151.25 82.22 151.25 79.94 151.25 77.66 C 160.90 74.78 170.53 71.04 178.51 64.75 C 170.80 58.88 164.03 51.77 158.92 43.52 C 162.87 43.50 166.82 43.50 170.76 43.51 C 174.53 49.59 179.85 54.48 185.40 58.91 C 191.97 52.99 197.97 46.01 200.84 37.50 C 185.74 37.50 170.64 37.50 155.55 37.50 C 155.50 36.48 155.41 34.43 155.36 33.41 C 163.06 33.05 170.78 33.35 178.49 33.25 C 178.50 30.42 178.50 27.59 178.49 24.76 C 169.41 24.74 160.33 24.76 151.25 24.75 C 151.25 22.75 151.25 20.76 151.25 18.76 C 160.36 18.68 169.47 18.89 178.58 18.65 C 178.83 15.27 177.64 11.39 179.27 8.29 Z" />
<path fill="#3f3a39" opacity="1.00" d=" M 239.18 42.76 C 244.32 31.33 249.48 19.92 254.61 8.50 C 258.89 8.51 263.16 8.50 267.44 8.50 C 264.63 15.59 261.71 22.63 258.91 29.72 C 259.74 29.73 261.41 29.76 262.24 29.78 C 262.20 47.78 262.36 65.79 262.17 83.80 C 258.19 83.71 254.22 83.76 250.25 83.75 C 250.24 70.08 250.26 56.42 250.24 42.76 C 246.55 42.75 242.86 42.75 239.18 42.76 Z" />
<path fill="#3f3a39" opacity="1.00" d=" M 297.24 22.25 C 297.27 17.99 297.19 13.72 297.31 9.46 C 301.62 9.53 305.93 9.49 310.25 9.51 C 310.25 13.75 310.25 17.99 310.25 22.24 C 311.91 22.25 313.58 22.26 315.26 22.27 C 315.24 23.93 315.24 25.58 315.24 27.24 C 313.58 27.25 311.91 27.25 310.25 27.26 C 310.24 43.49 310.27 59.72 310.25 75.95 C 310.31 78.50 309.66 81.93 306.77 82.63 C 301.13 82.96 295.46 82.62 289.81 82.78 C 289.76 80.77 289.73 78.77 289.74 76.76 C 292.24 76.73 294.83 77.04 297.24 76.20 C 297.25 59.88 297.26 43.57 297.24 27.25 C 287.33 27.25 277.42 27.26 267.52 27.25 C 267.50 25.60 267.47 23.96 267.45 22.32 C 277.38 22.16 287.31 22.30 297.24 22.25 Z" />
<path fill="#3f3a39" opacity="1.00" d=" M 339.99 33.25 C 361.91 33.26 383.83 33.25 405.75 33.25 C 405.74 35.00 405.74 36.75 405.74 38.50 C 396.93 38.48 388.12 38.55 379.31 38.46 C 379.22 41.89 379.24 45.32 379.26 48.75 C 388.11 48.83 396.97 48.60 405.83 48.87 C 405.78 50.49 405.75 52.12 405.73 53.75 C 396.90 53.76 388.08 53.73 379.25 53.76 C 379.25 61.17 379.26 68.58 379.25 75.99 C 383.84 76.01 388.43 76.00 393.02 76.00 C 391.86 72.25 390.68 68.51 389.58 64.75 C 393.37 64.84 397.17 64.54 400.95 64.90 C 402.36 65.18 402.34 66.95 402.94 67.98 C 404.45 72.32 405.98 76.67 407.53 81.00 C 385.02 81.00 362.51 81.00 340.00 81.00 C 340.00 79.33 340.00 77.67 340.00 76.00 C 348.83 76.00 357.66 76.00 366.49 76.00 C 366.50 68.58 366.50 61.17 366.49 53.76 C 357.66 53.75 348.84 53.75 340.01 53.76 C 340.00 52.09 340.00 50.42 340.00 48.76 C 348.83 48.75 357.65 48.74 366.48 48.76 C 366.50 45.34 366.50 41.93 366.49 38.51 C 357.68 38.52 348.87 38.46 340.06 38.54 C 340.03 36.78 340.00 35.01 339.99 33.25 Z" />
<path fill="#3f3a39" opacity="1.00" d=" M 271.72 35.02 C 275.38 35.09 279.07 34.75 282.73 35.18 C 283.83 35.78 284.70 36.77 284.96 38.03 C 287.35 45.52 289.72 53.03 292.21 60.49 C 287.91 60.51 283.62 60.51 279.32 60.49 C 276.83 51.98 274.22 43.52 271.72 35.02 Z" />
<path fill="#3f3a39" opacity="1.00" d=" M 163.15 98.96 C 164.64 99.00 166.14 99.06 167.64 99.12 C 171.41 106.59 175.58 113.84 179.42 121.27 C 177.40 121.26 175.39 121.23 173.37 121.19 C 172.84 119.79 172.31 118.40 171.78 117.00 C 167.78 117.00 163.78 117.00 159.78 116.99 C 159.19 118.41 158.62 119.82 158.04 121.24 C 156.03 121.25 154.02 121.25 152.01 121.26 C 155.70 113.82 159.44 106.40 163.15 98.96 M 166.58 104.97 C 165.18 108.05 163.76 111.13 162.42 114.24 C 165.22 114.26 168.02 114.26 170.82 114.24 C 169.43 111.14 168.02 108.05 166.58 104.97 Z" />
<path fill="#3f3a39" opacity="1.00" d=" M 206.75 99.00 C 208.50 99.00 210.25 99.00 212.00 99.00 C 212.02 105.50 211.97 112.01 212.03 118.52 C 216.52 118.50 221.01 118.50 225.51 118.51 C 225.50 119.19 225.50 120.56 225.49 121.25 C 219.25 121.25 213.00 121.26 206.76 121.25 C 206.74 113.83 206.75 106.42 206.75 99.00 Z" />
<path fill="#3f3a39" opacity="1.00" d=" M 254.49 99.02 C 256.24 99.01 258.00 99.01 259.76 99.00 C 259.74 106.41 259.75 113.83 259.75 121.24 C 258.00 121.24 256.25 121.25 254.51 121.26 C 254.47 113.84 254.52 106.43 254.49 99.02 Z" />
<path fill="#3f3a39" opacity="1.00" d=" M 292.25 99.01 C 298.05 99.39 304.25 97.93 309.76 100.32 C 313.48 101.70 314.98 107.17 311.81 109.87 C 307.85 113.39 302.13 112.58 297.25 112.77 C 297.25 115.58 297.25 118.39 297.24 121.21 C 295.63 121.25 294.02 121.31 292.41 121.37 C 292.04 113.92 292.35 106.46 292.25 99.01 M 297.27 109.25 C 299.84 109.07 302.38 109.37 304.90 109.88 C 307.62 109.21 309.68 105.69 307.48 103.35 C 304.91 100.58 300.73 101.78 297.41 101.39 C 297.20 104.01 297.21 106.63 297.27 109.25 Z" />
<path fill="#3f3a39" opacity="1.00" d=" M 346.89 99.00 C 348.29 99.00 349.70 99.00 351.11 99.00 C 354.85 106.40 358.54 113.83 362.25 121.26 C 360.25 121.25 358.25 121.24 356.26 121.22 C 355.72 119.82 355.19 118.43 354.66 117.03 C 350.88 116.98 347.11 116.98 343.35 117.03 C 342.81 118.43 342.27 119.82 341.74 121.22 C 339.74 121.24 337.74 121.25 335.75 121.26 C 339.45 113.83 343.15 106.41 346.89 99.00 M 345.23 114.26 C 348.05 114.26 350.86 114.25 353.68 114.22 C 352.25 111.19 350.87 108.13 349.54 105.06 C 347.93 108.04 346.64 111.18 345.23 114.26 Z" />
<path fill="#3f3a39" opacity="1.00" d=" M 384.46 98.99 C 386.48 99.17 388.75 98.54 390.64 99.38 C 392.74 102.26 394.37 105.47 396.52 108.32 C 398.41 105.20 400.41 102.16 402.32 99.05 C 404.32 99.01 406.32 98.99 408.34 98.99 C 405.35 103.36 401.93 107.44 399.08 111.89 C 398.85 115.00 399.05 118.13 399.00 121.25 C 396.99 121.25 394.99 121.25 393.00 121.25 C 392.65 117.65 394.04 113.51 391.65 110.39 C 389.19 106.63 386.85 102.80 384.46 98.99 Z" />
</g>
</svg>
