<?xml version="1.0" encoding="UTF-8" ?>
<!DOCTYPE svg PUBLIC "-//W3C//DTD SVG 1.1//EN" "http://www.w3.org/Graphics/SVG/1.1/DTD/svg11.dtd">
<svg width="180pt" height="234pt" viewBox="0 0 180 234" version="1.1" xmlns="http://www.w3.org/2000/svg">
<g id="#ffffffff">
<path fill="#ffffff" opacity="1.00" d=" M 0.00 0.00 L 180.00 0.00 L 180.00 55.18 C 120.00 55.18 60.00 55.18 0.00 55.18 L 0.00 0.00 M 35.87 14.88 C 35.68 21.94 35.83 29.00 35.80 36.07 C 35.66 38.76 36.95 42.30 40.01 42.63 C 46.01 43.03 52.04 42.65 58.05 42.80 C 61.09 42.72 64.21 43.10 67.19 42.33 C 68.69 41.13 69.65 39.42 70.77 37.88 C 66.22 35.60 61.42 33.88 56.88 31.60 C 53.84 34.41 50.38 37.42 46.00 37.47 C 42.82 37.77 39.36 35.80 38.48 32.64 C 37.66 29.53 40.28 26.72 43.05 25.78 C 47.26 24.87 51.44 26.45 55.45 27.56 C 56.18 26.07 56.90 24.57 57.61 23.07 C 52.73 22.64 47.81 23.33 42.96 22.55 C 45.89 21.48 49.06 21.58 52.11 21.06 C 49.25 18.19 44.85 20.00 41.37 18.57 C 44.50 17.87 47.71 17.80 50.90 17.76 C 50.86 16.56 50.83 15.37 50.79 14.17 C 51.80 14.09 53.82 13.93 54.82 13.85 C 54.78 15.16 54.73 16.47 54.69 17.78 C 57.88 17.80 61.09 17.84 64.25 18.39 C 60.87 19.68 57.19 19.29 53.68 19.81 C 55.65 22.41 59.03 21.46 61.80 21.75 C 60.83 24.10 59.85 26.44 58.89 28.79 C 62.55 30.06 66.17 31.63 70.08 31.93 C 70.30 26.28 70.28 20.61 70.13 14.96 C 70.18 11.75 67.09 9.33 64.01 9.57 C 56.36 9.53 48.70 9.43 41.05 9.61 C 38.23 9.61 35.90 12.10 35.87 14.88 M 83.69 11.79 C 83.67 12.45 83.61 13.77 83.59 14.44 C 81.21 14.41 78.84 14.39 76.47 14.39 C 76.55 14.79 76.72 15.58 76.80 15.98 C 79.51 15.98 82.24 16.03 84.92 16.52 C 82.79 18.02 80.14 17.83 77.68 18.00 L 77.71 19.40 C 81.83 19.35 85.95 19.24 90.05 19.53 C 88.72 21.13 87.42 22.78 85.90 24.20 C 83.52 22.56 81.44 20.26 78.26 20.45 C 79.99 22.44 81.86 24.30 83.78 26.11 C 81.42 27.09 79.06 28.05 76.68 28.97 C 76.63 29.47 76.54 30.48 76.49 30.99 C 79.68 29.94 82.79 28.70 85.83 27.27 C 88.97 28.87 92.24 30.30 95.74 30.83 C 93.87 28.23 90.69 27.33 87.92 26.04 C 90.34 23.78 92.31 21.11 93.97 18.25 C 91.36 17.91 88.65 17.85 86.24 16.70 C 89.42 16.02 92.69 16.05 95.86 15.33 C 93.21 14.18 90.28 14.38 87.47 14.33 C 87.51 13.68 87.60 12.36 87.64 11.70 C 86.32 11.73 85.01 11.76 83.69 11.79 M 95.06 20.38 C 95.78 20.37 97.22 20.36 97.94 20.36 C 97.84 23.69 97.83 27.02 97.80 30.36 C 98.92 30.40 100.05 30.44 101.17 30.48 C 101.25 26.28 101.22 22.07 101.29 17.86 C 100.98 17.45 100.36 16.63 100.06 16.22 C 100.91 14.76 101.75 13.29 102.60 11.83 C 101.65 11.84 99.76 11.86 98.82 11.88 C 97.58 14.71 96.32 17.54 95.06 20.38 M 110.26 11.47 C 110.25 12.39 110.23 14.22 110.22 15.14 C 107.16 15.22 103.89 14.68 101.12 16.30 C 104.13 16.88 107.21 16.88 110.27 16.90 C 110.22 20.52 110.23 24.13 110.24 27.75 C 109.26 28.61 108.30 29.48 107.35 30.38 C 109.37 30.25 111.38 30.07 113.38 29.80 C 113.75 25.12 112.37 20.08 114.44 15.67 C 113.62 13.67 112.81 11.52 110.26 11.47 M 116.59 13.70 C 116.62 14.70 116.64 15.70 116.67 16.69 C 117.51 16.69 118.36 16.68 119.21 16.68 C 121.75 13.82 125.96 15.12 129.30 15.07 C 130.60 15.98 132.02 16.70 133.45 17.37 C 133.59 16.46 133.86 14.65 133.99 13.74 C 132.11 13.57 130.23 13.43 128.35 13.26 C 127.76 12.86 126.57 12.05 125.97 11.65 C 122.91 12.63 119.87 13.76 116.59 13.70 M 103.25 18.23 C 104.00 20.42 104.76 22.60 105.52 24.78 C 106.54 24.79 107.56 24.79 108.59 24.79 C 107.99 22.75 107.42 20.70 106.85 18.65 C 105.65 18.50 104.45 18.36 103.25 18.23 M 116.63 18.02 L 116.71 19.40 C 119.00 19.38 121.30 19.36 123.59 19.35 C 123.61 19.93 123.65 21.10 123.67 21.68 C 121.32 21.70 118.96 21.70 116.61 21.71 L 116.69 23.32 C 119.00 23.31 121.31 23.30 123.63 23.29 C 123.59 25.00 123.56 26.71 123.53 28.41 C 120.86 28.45 118.19 28.50 115.56 28.97 C 121.48 31.37 128.03 29.33 134.23 29.86 C 133.83 28.48 133.44 27.10 133.05 25.72 C 131.80 25.72 130.56 25.73 129.31 25.73 C 129.61 26.43 130.20 27.83 130.50 28.53 C 129.31 28.49 128.12 28.45 126.93 28.41 C 126.88 26.72 126.83 25.04 126.78 23.36 C 129.13 23.31 131.48 23.30 133.83 23.28 L 133.78 21.72 C 131.40 21.70 129.03 21.67 126.67 21.60 C 126.73 21.08 126.87 20.03 126.94 19.51 C 129.65 19.41 132.43 19.45 135.00 18.48 C 128.94 17.34 122.75 17.93 116.63 18.02 M 39.68 32.00 C 40.72 34.88 44.34 35.97 47.06 34.99 C 49.88 34.22 51.99 32.09 54.01 30.09 C 50.78 28.99 47.53 27.30 44.02 27.67 C 41.86 27.84 39.38 29.58 39.68 32.00 M 107.42 32.36 C 107.18 35.51 107.14 38.69 107.75 41.80 C 108.16 41.00 108.97 39.39 109.38 38.58 C 111.19 37.68 112.79 36.45 114.15 34.96 C 112.16 33.51 109.83 32.74 107.42 32.36 M 126.46 31.83 C 127.46 34.76 128.76 37.60 129.22 40.69 C 129.44 40.71 129.89 40.77 130.11 40.79 C 130.82 37.83 131.91 34.97 132.51 31.97 C 131.56 33.15 130.63 34.33 129.73 35.54 C 128.68 34.27 127.60 33.03 126.46 31.83 M 81.20 33.36 C 80.13 34.87 82.64 36.08 83.44 34.62 L 83.18 33.66 C 82.68 33.59 81.70 33.44 81.20 33.36 M 90.46 31.97 C 90.06 35.00 90.12 38.07 90.36 41.11 C 91.79 41.15 93.22 41.20 94.66 41.25 C 94.70 40.79 94.77 39.86 94.81 39.39 C 94.08 39.43 92.63 39.49 91.90 39.52 C 91.70 36.97 92.28 34.09 90.46 31.97 M 101.32 41.88 C 101.89 38.60 101.90 35.25 101.40 31.97 C 99.33 34.79 99.59 38.95 101.32 41.88 M 116.14 40.90 C 118.47 39.48 121.16 39.52 123.51 40.91 C 123.11 39.58 122.74 38.25 122.43 36.90 C 121.97 37.10 121.04 37.51 120.57 37.71 L 119.96 38.04 C 119.80 37.91 119.47 37.64 119.31 37.51 C 120.67 35.84 122.36 34.09 119.84 32.41 C 118.32 35.11 117.28 38.03 116.14 40.90 M 80.11 35.22 C 79.65 37.30 79.11 39.37 78.60 41.45 C 79.73 40.65 80.90 39.87 81.91 38.91 C 81.47 37.61 80.80 36.40 80.11 35.22 M 81.99 39.09 C 83.26 39.80 84.52 40.52 85.80 41.21 C 85.16 39.19 84.53 37.16 83.91 35.13 C 83.22 36.43 82.61 37.76 81.99 39.09 Z" />
<path fill="#ffffff" opacity="1.00" d=" M 108.97 34.46 C 110.22 33.13 112.78 35.12 111.26 36.48 C 109.98 37.86 107.38 35.87 108.97 34.46 Z" />
<path fill="#ffffff" opacity="1.00" d=" M 7.15 62.34 C 10.78 62.00 14.43 62.22 18.07 62.18 C 66.38 62.19 114.70 62.20 163.01 62.18 C 166.52 62.22 170.05 61.96 173.54 62.46 C 173.89 90.95 173.58 119.47 173.68 147.98 C 173.58 174.53 173.88 201.10 173.54 227.65 C 171.38 227.99 169.19 227.93 167.01 227.95 C 113.60 227.80 60.18 228.10 6.78 227.80 C 5.83 225.31 6.45 222.54 6.30 219.93 C 6.32 168.62 6.35 117.31 6.28 66.00 C 6.67 64.96 5.60 62.43 7.15 62.34 Z" />
</g>
<g id="#009fe9ff">
<path fill="#009fe9" opacity="1.00" d=" M 35.87 14.88 C 35.90 12.10 38.23 9.61 41.05 9.61 C 48.70 9.43 56.36 9.53 64.01 9.57 C 67.09 9.33 70.18 11.75 70.13 14.96 C 70.28 20.61 70.30 26.28 70.08 31.93 C 66.17 31.63 62.55 30.06 58.89 28.79 C 59.85 26.44 60.83 24.10 61.80 21.75 C 59.03 21.46 55.65 22.41 53.68 19.81 C 57.19 19.29 60.87 19.68 64.25 18.39 C 61.09 17.84 57.88 17.80 54.69 17.78 C 54.73 16.47 54.78 15.16 54.82 13.85 C 53.82 13.93 51.80 14.09 50.79 14.17 C 50.83 15.37 50.86 16.56 50.90 17.76 C 47.71 17.80 44.50 17.87 41.37 18.57 C 44.85 20.00 49.25 18.19 52.11 21.06 C 49.06 21.58 45.89 21.48 42.96 22.55 C 47.81 23.33 52.73 22.64 57.61 23.07 C 56.90 24.57 56.18 26.07 55.45 27.56 C 51.44 26.45 47.26 24.87 43.05 25.78 C 40.28 26.72 37.66 29.53 38.48 32.64 C 39.36 35.80 42.82 37.77 46.00 37.47 C 50.38 37.42 53.84 34.41 56.88 31.60 C 61.42 33.88 66.22 35.60 70.77 37.88 C 69.65 39.42 68.69 41.13 67.19 42.33 C 64.21 43.10 61.09 42.72 58.05 42.80 C 52.04 42.65 46.01 43.03 40.01 42.63 C 36.95 42.30 35.66 38.76 35.80 36.07 C 35.83 29.00 35.68 21.94 35.87 14.88 Z" />
<path fill="#009fe9" opacity="1.00" d=" M 83.69 11.79 C 85.01 11.76 86.32 11.73 87.64 11.70 C 87.60 12.36 87.51 13.68 87.47 14.33 C 90.28 14.38 93.21 14.18 95.86 15.33 C 92.69 16.05 89.42 16.02 86.24 16.70 C 88.65 17.85 91.36 17.91 93.97 18.25 C 92.31 21.11 90.34 23.78 87.92 26.04 C 90.69 27.33 93.87 28.23 95.74 30.83 C 92.24 30.30 88.97 28.87 85.83 27.27 C 82.79 28.70 79.68 29.94 76.49 30.99 C 76.54 30.48 76.63 29.47 76.68 28.97 C 79.06 28.05 81.42 27.09 83.78 26.11 C 81.86 24.30 79.99 22.44 78.26 20.45 C 81.44 20.26 83.52 22.56 85.90 24.20 C 87.42 22.78 88.72 21.13 90.05 19.53 C 85.95 19.24 81.83 19.35 77.71 19.40 L 77.68 18.00 C 80.14 17.83 82.79 18.02 84.92 16.52 C 82.24 16.03 79.51 15.98 76.80 15.98 C 76.72 15.58 76.55 14.79 76.47 14.39 C 78.84 14.39 81.21 14.41 83.59 14.44 C 83.61 13.77 83.67 12.45 83.69 11.79 Z" />
<path fill="#009fe9" opacity="1.00" d=" M 95.06 20.38 C 96.32 17.54 97.58 14.71 98.82 11.88 C 99.76 11.86 101.65 11.84 102.60 11.83 C 101.75 13.29 100.91 14.76 100.06 16.22 C 100.36 16.63 100.98 17.45 101.29 17.86 C 101.22 22.07 101.25 26.28 101.17 30.48 C 100.05 30.44 98.92 30.40 97.80 30.36 C 97.83 27.02 97.84 23.69 97.94 20.36 C 97.22 20.36 95.78 20.37 95.06 20.38 Z" />
<path fill="#009fe9" opacity="1.00" d=" M 110.26 11.47 C 112.81 11.52 113.62 13.67 114.44 15.67 C 112.37 20.08 113.75 25.12 113.38 29.80 C 111.38 30.07 109.37 30.25 107.35 30.38 C 108.30 29.48 109.26 28.61 110.24 27.75 C 110.23 24.13 110.22 20.52 110.27 16.90 C 107.21 16.88 104.13 16.88 101.12 16.30 C 103.89 14.68 107.16 15.22 110.22 15.14 C 110.23 14.22 110.25 12.39 110.26 11.47 Z" />
<path fill="#009fe9" opacity="1.00" d=" M 116.59 13.70 C 119.87 13.76 122.91 12.63 125.97 11.65 C 126.57 12.05 127.76 12.86 128.35 13.26 C 130.23 13.43 132.11 13.57 133.99 13.74 C 133.86 14.65 133.59 16.46 133.45 17.37 C 132.02 16.70 130.60 15.98 129.30 15.07 C 125.96 15.12 121.75 13.82 119.21 16.68 C 118.36 16.68 117.51 16.69 116.67 16.69 C 116.64 15.70 116.62 14.70 116.59 13.70 Z" />
<path fill="#009fe9" opacity="1.00" d=" M 103.25 18.23 C 104.45 18.36 105.65 18.50 106.85 18.65 C 107.42 20.70 107.99 22.75 108.59 24.79 C 107.56 24.79 106.54 24.79 105.52 24.78 C 104.76 22.60 104.00 20.42 103.25 18.23 Z" />
<path fill="#009fe9" opacity="1.00" d=" M 116.63 18.02 C 122.75 17.93 128.94 17.34 135.00 18.48 C 132.43 19.45 129.65 19.41 126.94 19.51 C 126.87 20.03 126.73 21.08 126.67 21.60 C 129.03 21.67 131.40 21.70 133.78 21.72 L 133.83 23.28 C 131.48 23.30 129.13 23.31 126.78 23.36 C 126.83 25.04 126.88 26.72 126.93 28.41 C 128.12 28.45 129.31 28.49 130.50 28.53 C 130.20 27.83 129.61 26.43 129.31 25.73 C 130.56 25.73 131.80 25.72 133.05 25.72 C 133.44 27.10 133.83 28.48 134.23 29.86 C 128.03 29.33 121.48 31.37 115.56 28.97 C 118.19 28.50 120.86 28.45 123.53 28.41 C 123.56 26.71 123.59 25.00 123.63 23.29 C 121.31 23.30 119.00 23.31 116.69 23.32 L 116.61 21.71 C 118.96 21.70 121.32 21.70 123.67 21.68 C 123.65 21.10 123.61 19.93 123.59 19.35 C 121.30 19.36 119.00 19.38 116.71 19.40 L 116.63 18.02 Z" />
<path fill="#009fe9" opacity="1.00" d=" M 39.68 32.00 C 39.38 29.58 41.86 27.84 44.02 27.67 C 47.53 27.30 50.78 28.99 54.01 30.09 C 51.99 32.09 49.88 34.22 47.06 34.99 C 44.34 35.97 40.72 34.88 39.68 32.00 Z" />
<path fill="#009fe9" opacity="1.00" d=" M 107.42 32.36 C 109.83 32.74 112.16 33.51 114.15 34.96 C 112.79 36.45 111.19 37.68 109.38 38.58 C 108.97 39.39 108.16 41.00 107.75 41.80 C 107.14 38.69 107.18 35.51 107.42 32.36 M 108.97 34.46 C 107.38 35.87 109.98 37.86 111.26 36.48 C 112.78 35.12 110.22 33.13 108.97 34.46 Z" />
<path fill="#009fe9" opacity="1.00" d=" M 126.46 31.83 C 127.60 33.03 128.68 34.27 129.73 35.54 C 130.63 34.33 131.56 33.15 132.51 31.97 C 131.91 34.97 130.82 37.83 130.11 40.79 C 129.89 40.77 129.44 40.71 129.22 40.69 C 128.76 37.60 127.46 34.76 126.46 31.83 Z" />
<path fill="#009fe9" opacity="1.00" d=" M 81.20 33.36 C 81.70 33.44 82.68 33.59 83.18 33.66 L 83.44 34.62 C 82.64 36.08 80.13 34.87 81.20 33.36 Z" />
<path fill="#009fe9" opacity="1.00" d=" M 90.46 31.97 C 92.28 34.09 91.70 36.97 91.90 39.52 C 92.63 39.49 94.08 39.43 94.81 39.39 C 94.77 39.86 94.70 40.79 94.66 41.25 C 93.22 41.20 91.79 41.15 90.36 41.11 C 90.12 38.07 90.06 35.00 90.46 31.97 Z" />
<path fill="#009fe9" opacity="1.00" d=" M 101.32 41.88 C 99.59 38.95 99.33 34.79 101.40 31.97 C 101.90 35.25 101.89 38.60 101.32 41.88 Z" />
<path fill="#009fe9" opacity="1.00" d=" M 116.14 40.90 C 117.28 38.03 118.32 35.11 119.84 32.41 C 122.36 34.09 120.67 35.84 119.31 37.51 C 119.47 37.64 119.80 37.91 119.96 38.04 L 120.57 37.71 C 121.04 37.51 121.97 37.10 122.43 36.90 C 122.74 38.25 123.11 39.58 123.51 40.91 C 121.16 39.52 118.47 39.48 116.14 40.90 Z" />
<path fill="#009fe9" opacity="1.00" d=" M 80.11 35.22 C 80.80 36.40 81.47 37.61 81.91 38.91 C 80.90 39.87 79.73 40.65 78.60 41.45 C 79.11 39.37 79.65 37.30 80.11 35.22 Z" />
<path fill="#009fe9" opacity="1.00" d=" M 81.99 39.09 C 82.61 37.76 83.22 36.43 83.91 35.13 C 84.53 37.16 85.16 39.19 85.80 41.21 C 84.52 40.52 83.26 39.80 81.99 39.09 Z" />
<path fill="#009fe9" opacity="1.00" d=" M 0.00 55.18 C 60.00 55.18 120.00 55.18 180.00 55.18 L 180.00 234.00 L 0.00 234.00 L 0.00 55.18 M 7.15 62.34 C 5.60 62.43 6.67 64.96 6.28 66.00 C 6.35 117.31 6.32 168.62 6.30 219.93 C 6.45 222.54 5.83 225.31 6.78 227.80 C 60.18 228.10 113.60 227.80 167.01 227.95 C 169.19 227.93 171.38 227.99 173.54 227.65 C 173.88 201.10 173.58 174.53 173.68 147.98 C 173.58 119.47 173.89 90.95 173.54 62.46 C 170.05 61.96 166.52 62.22 163.01 62.18 C 114.70 62.20 66.38 62.19 18.07 62.18 C 14.43 62.22 10.78 62.00 7.15 62.34 Z" />
</g>
</svg>
