<?xml version="1.0" encoding="UTF-8" ?>
<!DOCTYPE svg PUBLIC "-//W3C//DTD SVG 1.1//EN" "http://www.w3.org/Graphics/SVG/1.1/DTD/svg11.dtd">
<svg width="180pt" height="234pt" viewBox="0 0 180 234" version="1.1" xmlns="http://www.w3.org/2000/svg">
<g id="#ffffffff">
<path fill="#ffffff" opacity="1.00" d=" M 0.00 0.00 L 180.00 0.00 L 180.00 55.18 C 120.00 55.19 60.00 55.18 0.00 55.19 L 0.00 0.00 M 20.74 13.75 C 15.54 17.00 12.13 23.85 14.51 29.83 C 15.60 33.25 18.45 35.60 21.00 37.95 C 20.51 39.68 20.02 41.40 19.57 43.14 C 21.70 42.20 23.76 41.11 25.83 40.04 C 33.63 41.86 43.05 40.89 48.39 34.29 C 52.22 29.83 52.37 23.25 49.42 18.29 C 41.92 22.82 34.22 27.03 26.56 31.26 C 24.87 28.06 23.26 24.81 22.03 21.40 C 24.17 22.60 26.16 24.03 28.11 25.51 C 34.89 22.57 41.69 19.69 48.46 16.75 C 41.48 9.31 29.16 8.08 20.74 13.75 M 60.43 20.61 C 60.81 20.90 61.59 21.46 61.97 21.75 C 64.02 19.28 66.00 16.69 67.23 13.71 C 63.92 14.71 62.58 18.22 60.43 20.61 M 75.55 24.23 C 72.44 23.89 69.09 23.39 66.23 25.03 C 68.88 26.13 71.78 25.91 74.58 25.97 C 75.27 25.46 76.65 24.44 77.34 23.93 C 77.82 26.37 78.48 28.77 79.32 31.11 C 77.81 33.19 75.44 34.91 75.36 37.73 C 77.15 36.32 78.73 34.68 80.24 32.98 C 81.64 34.87 83.08 36.91 85.51 37.51 C 84.52 35.19 82.76 33.38 81.32 31.36 C 83.11 27.15 83.41 22.49 85.32 18.34 C 83.54 18.36 81.76 18.35 79.98 18.37 C 80.24 16.67 81.26 14.84 80.10 13.23 C 77.92 16.58 77.33 20.67 75.55 24.23 M 92.55 16.03 C 91.28 19.71 89.36 23.07 87.35 26.39 C 89.23 26.87 90.34 25.10 91.54 23.98 C 90.89 28.20 90.52 32.51 91.04 36.76 C 91.54 37.03 92.55 37.56 93.05 37.83 C 93.21 32.90 93.12 27.96 92.84 23.04 C 92.69 19.70 94.55 16.76 95.31 13.59 C 94.24 14.21 92.80 14.61 92.55 16.03 M 102.17 13.18 C 102.29 14.12 102.52 16.01 102.63 16.95 C 99.92 16.85 97.19 16.84 94.50 17.23 C 94.89 17.61 95.69 18.39 96.08 18.78 C 101.13 19.05 106.19 18.59 111.24 19.00 C 111.70 18.65 112.60 17.95 113.06 17.60 C 110.62 16.75 108.02 16.81 105.47 16.86 C 104.46 15.55 103.34 14.35 102.17 13.18 M 124.84 16.90 C 121.52 16.87 118.20 16.86 114.88 16.85 C 114.75 17.32 114.50 18.27 114.37 18.74 C 118.03 18.97 121.69 18.90 125.35 18.89 C 125.28 20.11 125.19 21.33 125.08 22.55 C 122.64 22.60 120.20 22.76 117.79 23.15 C 119.32 26.67 121.70 29.73 124.50 32.34 C 121.48 34.32 116.68 33.94 114.99 37.55 C 118.96 37.07 122.60 35.36 125.99 33.34 C 129.19 35.35 132.70 36.86 136.38 37.69 C 135.13 34.06 130.34 34.25 127.52 32.35 C 130.41 29.88 132.81 26.90 134.63 23.56 C 132.24 22.70 129.70 22.56 127.18 22.52 C 127.19 21.28 127.20 20.04 127.23 18.81 C 131.19 18.77 135.32 19.54 139.12 18.04 C 135.50 15.97 131.24 17.11 127.29 16.92 C 127.24 15.98 127.15 14.12 127.11 13.19 C 125.13 13.57 125.30 15.49 124.84 16.90 M 144.45 14.06 C 143.21 18.76 140.14 22.69 138.82 27.33 C 140.06 26.32 141.19 25.19 142.31 24.05 C 142.17 28.29 141.87 32.56 142.27 36.79 C 142.72 37.07 143.63 37.61 144.08 37.88 C 144.27 32.24 144.07 26.59 144.12 20.95 C 144.17 18.66 145.54 16.69 146.38 14.63 C 145.90 14.49 144.93 14.20 144.45 14.06 M 157.22 13.43 C 157.05 15.47 156.99 17.51 156.93 19.56 C 153.07 20.09 147.94 17.80 145.10 21.21 C 149.06 21.64 153.04 21.49 157.01 21.46 C 157.08 25.89 157.11 30.33 156.92 34.77 C 156.17 34.98 154.66 35.40 153.90 35.62 C 154.10 36.15 154.49 37.23 154.69 37.76 C 156.25 37.03 158.14 36.54 159.03 34.90 C 159.46 30.49 159.13 26.04 159.11 21.62 C 160.19 21.50 162.35 21.27 163.43 21.16 C 162.31 19.90 160.89 19.24 159.17 19.16 C 159.01 17.08 160.07 14.10 157.22 13.43 M 70.67 14.28 C 70.69 16.42 70.78 18.55 70.74 20.69 C 68.52 19.92 68.80 17.25 67.97 15.47 C 66.62 17.26 66.00 20.51 68.09 21.99 C 70.70 22.31 73.34 22.06 75.95 21.87 C 76.04 19.67 76.02 17.45 75.78 15.25 C 74.19 16.77 74.20 19.02 73.63 20.98 C 71.84 19.19 72.53 16.61 72.42 14.37 L 70.67 14.28 M 60.01 29.65 C 60.88 29.13 62.63 28.10 63.51 27.58 C 63.25 31.01 62.68 34.57 63.66 37.95 L 64.95 37.03 C 65.66 31.30 64.37 25.40 66.57 19.88 C 63.46 22.34 61.59 26.08 60.01 29.65 M 96.24 22.79 C 100.77 22.77 105.32 23.08 109.84 22.72 C 110.27 22.36 111.14 21.64 111.58 21.28 C 106.63 20.58 101.62 21.00 96.64 20.88 C 96.54 21.36 96.34 22.31 96.24 22.79 M 148.66 25.69 C 149.84 27.81 150.99 29.94 152.29 31.98 C 154.69 29.29 151.07 26.59 150.03 24.16 C 149.68 24.54 149.00 25.31 148.66 25.69 M 95.75 24.93 L 96.99 26.62 C 101.42 27.04 105.89 26.62 110.33 26.89 C 110.48 26.38 110.78 25.36 110.93 24.85 C 105.87 24.78 100.81 24.70 95.75 24.93 M 67.90 27.79 C 67.78 30.97 66.87 34.01 65.72 36.95 C 68.87 35.94 69.26 32.65 70.02 29.92 C 70.92 29.61 71.83 29.35 72.76 29.13 C 72.83 31.22 72.81 33.31 72.84 35.40 C 74.62 34.23 76.24 32.82 77.58 31.16 C 76.79 31.30 75.21 31.60 74.42 31.74 C 74.42 30.45 74.35 29.16 74.20 27.87 C 72.11 27.64 70.00 27.72 67.90 27.79 M 96.64 29.18 C 96.63 31.65 96.65 34.11 96.69 36.57 C 101.27 36.82 105.86 36.81 110.44 36.61 C 110.51 34.24 110.68 31.87 110.39 29.52 C 106.05 27.96 101.16 28.86 96.64 29.18 Z" />
<path fill="#ffffff" opacity="1.00" d=" M 78.67 20.05 C 79.81 20.21 80.95 20.38 82.10 20.55 C 81.65 23.43 81.18 26.30 80.58 29.15 C 79.50 26.23 78.66 23.19 78.67 20.05 Z" />
<path fill="#ffffff" opacity="1.00" d=" M 120.30 24.61 C 124.22 24.52 128.13 24.52 132.05 24.61 C 130.23 27.01 128.18 29.22 126.01 31.30 C 123.93 29.23 121.97 27.03 120.30 24.61 Z" />
<path fill="#ffffff" opacity="1.00" d=" M 98.35 34.78 C 98.45 33.40 98.54 32.02 98.65 30.64 C 101.87 30.65 105.09 30.65 108.31 30.63 C 108.44 32.01 108.56 33.38 108.67 34.76 C 105.23 34.81 101.79 34.81 98.35 34.78 Z" />
<path fill="#ffffff" opacity="1.00" d=" M 6.91 63.08 C 62.29 63.00 117.67 63.01 173.06 63.07 C 172.73 97.04 173.03 131.02 172.92 164.99 C 173.00 185.63 172.75 206.27 173.11 226.90 C 117.70 226.95 62.29 226.95 6.89 226.90 C 7.36 212.29 6.59 197.67 7.07 183.06 C 7.03 154.70 7.22 126.34 6.92 97.99 C 7.17 86.35 7.13 74.71 6.91 63.08 Z" />
</g>
<g id="#21ab38ff">
<path fill="#21ab38" opacity="1.00" d=" M 20.74 13.75 C 29.16 8.08 41.48 9.31 48.46 16.75 C 41.69 19.69 34.89 22.57 28.11 25.51 C 26.16 24.03 24.17 22.60 22.03 21.40 C 23.26 24.81 24.87 28.06 26.56 31.26 C 34.22 27.03 41.92 22.82 49.42 18.29 C 52.37 23.25 52.22 29.83 48.39 34.29 C 43.05 40.89 33.63 41.86 25.83 40.04 C 23.76 41.11 21.70 42.20 19.57 43.14 C 20.02 41.40 20.51 39.68 21.00 37.95 C 18.45 35.60 15.60 33.25 14.51 29.83 C 12.13 23.85 15.54 17.00 20.74 13.75 Z" />
<path fill="#21ab38" opacity="1.00" d=" M 60.43 20.61 C 62.58 18.22 63.92 14.71 67.23 13.71 C 66.00 16.69 64.02 19.28 61.97 21.75 C 61.59 21.46 60.81 20.90 60.43 20.61 Z" />
<path fill="#21ab38" opacity="1.00" d=" M 75.55 24.23 C 77.33 20.67 77.92 16.58 80.10 13.23 C 81.26 14.84 80.24 16.67 79.98 18.37 C 81.76 18.35 83.54 18.36 85.32 18.34 C 83.41 22.49 83.11 27.15 81.32 31.36 C 82.76 33.38 84.52 35.19 85.51 37.51 C 83.08 36.91 81.64 34.87 80.24 32.98 C 78.73 34.68 77.15 36.32 75.36 37.73 C 75.44 34.91 77.81 33.19 79.32 31.11 C 78.48 28.77 77.82 26.37 77.34 23.93 C 76.65 24.44 75.27 25.46 74.58 25.97 C 71.78 25.91 68.88 26.13 66.23 25.03 C 69.09 23.39 72.44 23.89 75.55 24.23 M 78.67 20.05 C 78.66 23.19 79.50 26.23 80.58 29.15 C 81.18 26.30 81.65 23.43 82.10 20.55 C 80.95 20.38 79.81 20.21 78.67 20.05 Z" />
<path fill="#21ab38" opacity="1.00" d=" M 92.55 16.03 C 92.80 14.61 94.24 14.21 95.31 13.59 C 94.55 16.76 92.69 19.70 92.84 23.04 C 93.12 27.96 93.21 32.90 93.05 37.83 C 92.55 37.56 91.54 37.03 91.04 36.76 C 90.52 32.51 90.89 28.20 91.54 23.98 C 90.34 25.10 89.23 26.87 87.35 26.39 C 89.36 23.07 91.28 19.71 92.55 16.03 Z" />
<path fill="#21ab38" opacity="1.00" d=" M 102.17 13.18 C 103.34 14.35 104.46 15.55 105.47 16.86 C 108.02 16.81 110.62 16.75 113.06 17.60 C 112.60 17.95 111.70 18.65 111.24 19.00 C 106.19 18.59 101.13 19.05 96.08 18.78 C 95.69 18.39 94.89 17.61 94.50 17.23 C 97.19 16.84 99.92 16.85 102.63 16.95 C 102.52 16.01 102.29 14.12 102.17 13.18 Z" />
<path fill="#21ab38" opacity="1.00" d=" M 124.84 16.90 C 125.30 15.49 125.13 13.57 127.11 13.19 C 127.15 14.12 127.24 15.98 127.29 16.92 C 131.24 17.11 135.50 15.97 139.12 18.04 C 135.32 19.54 131.19 18.77 127.23 18.81 C 127.20 20.04 127.19 21.28 127.18 22.52 C 129.70 22.56 132.24 22.70 134.63 23.56 C 132.81 26.90 130.41 29.88 127.52 32.35 C 130.34 34.25 135.13 34.06 136.38 37.69 C 132.70 36.86 129.19 35.35 125.99 33.34 C 122.60 35.36 118.96 37.07 114.99 37.55 C 116.68 33.94 121.48 34.32 124.50 32.34 C 121.70 29.73 119.32 26.67 117.79 23.15 C 120.20 22.76 122.64 22.60 125.08 22.55 C 125.19 21.33 125.28 20.11 125.35 18.89 C 121.69 18.90 118.03 18.97 114.37 18.74 C 114.50 18.27 114.75 17.32 114.88 16.85 C 118.20 16.86 121.52 16.87 124.84 16.90 M 120.30 24.61 C 121.97 27.03 123.93 29.23 126.01 31.30 C 128.18 29.22 130.23 27.01 132.05 24.61 C 128.13 24.52 124.22 24.52 120.30 24.61 Z" />
<path fill="#21ab38" opacity="1.00" d=" M 144.45 14.06 C 144.93 14.20 145.90 14.49 146.38 14.63 C 145.54 16.69 144.17 18.66 144.12 20.95 C 144.07 26.59 144.27 32.24 144.08 37.88 C 143.63 37.61 142.72 37.07 142.27 36.79 C 141.87 32.56 142.17 28.29 142.31 24.05 C 141.19 25.19 140.06 26.32 138.82 27.33 C 140.14 22.69 143.21 18.76 144.45 14.06 Z" />
<path fill="#21ab38" opacity="1.00" d=" M 157.22 13.43 C 160.07 14.10 159.01 17.08 159.17 19.16 C 160.89 19.24 162.31 19.90 163.43 21.16 C 162.35 21.27 160.19 21.50 159.11 21.62 C 159.13 26.04 159.46 30.49 159.03 34.90 C 158.14 36.54 156.25 37.03 154.69 37.76 C 154.49 37.23 154.10 36.15 153.90 35.62 C 154.66 35.40 156.17 34.98 156.92 34.77 C 157.11 30.33 157.08 25.89 157.01 21.46 C 153.04 21.49 149.06 21.64 145.10 21.21 C 147.94 17.80 153.07 20.09 156.93 19.56 C 156.99 17.51 157.05 15.47 157.22 13.43 Z" />
<path fill="#21ab38" opacity="1.00" d=" M 70.67 14.28 L 72.42 14.37 C 72.53 16.61 71.84 19.19 73.63 20.98 C 74.20 19.02 74.19 16.77 75.78 15.25 C 76.02 17.45 76.04 19.67 75.95 21.87 C 73.34 22.06 70.70 22.31 68.09 21.99 C 66.00 20.51 66.62 17.26 67.97 15.47 C 68.80 17.25 68.52 19.92 70.74 20.69 C 70.78 18.55 70.69 16.42 70.67 14.28 Z" />
<path fill="#21ab38" opacity="1.00" d=" M 60.01 29.65 C 61.59 26.08 63.46 22.34 66.57 19.88 C 64.37 25.40 65.66 31.30 64.95 37.03 L 63.66 37.95 C 62.68 34.57 63.25 31.01 63.51 27.58 C 62.63 28.10 60.88 29.13 60.01 29.65 Z" />
<path fill="#21ab38" opacity="1.00" d=" M 96.24 22.79 C 96.34 22.31 96.54 21.36 96.64 20.88 C 101.62 21.00 106.63 20.58 111.58 21.28 C 111.14 21.64 110.27 22.36 109.84 22.72 C 105.32 23.08 100.77 22.77 96.24 22.79 Z" />
<path fill="#21ab38" opacity="1.00" d=" M 148.66 25.69 C 149.00 25.31 149.68 24.54 150.03 24.16 C 151.07 26.59 154.69 29.29 152.29 31.98 C 150.99 29.94 149.84 27.81 148.66 25.69 Z" />
<path fill="#21ab38" opacity="1.00" d=" M 95.75 24.93 C 100.81 24.70 105.87 24.78 110.93 24.85 C 110.78 25.36 110.48 26.38 110.33 26.89 C 105.89 26.62 101.42 27.04 96.99 26.62 L 95.75 24.93 Z" />
<path fill="#21ab38" opacity="1.00" d=" M 67.90 27.79 C 70.00 27.72 72.11 27.64 74.20 27.87 C 74.35 29.16 74.42 30.45 74.42 31.74 C 75.21 31.60 76.79 31.30 77.58 31.16 C 76.24 32.82 74.62 34.23 72.84 35.40 C 72.81 33.31 72.83 31.22 72.76 29.13 C 71.83 29.35 70.92 29.61 70.02 29.92 C 69.26 32.65 68.87 35.94 65.72 36.95 C 66.87 34.01 67.78 30.97 67.90 27.79 Z" />
<path fill="#21ab38" opacity="1.00" d=" M 96.64 29.18 C 101.16 28.86 106.05 27.96 110.39 29.52 C 110.68 31.87 110.51 34.24 110.44 36.61 C 105.86 36.81 101.27 36.82 96.69 36.57 C 96.65 34.11 96.63 31.65 96.64 29.18 M 98.35 34.78 C 101.79 34.81 105.23 34.81 108.67 34.76 C 108.56 33.38 108.44 32.01 108.31 30.63 C 105.09 30.65 101.87 30.65 98.65 30.64 C 98.54 32.02 98.45 33.40 98.35 34.78 Z" />
<path fill="#21ab38" opacity="1.00" d=" M 0.00 55.19 C 60.00 55.18 120.00 55.19 180.00 55.18 L 180.00 234.00 L 0.00 234.00 L 0.00 55.19 M 6.91 63.08 C 7.13 74.71 7.17 86.35 6.92 97.99 C 7.22 126.34 7.03 154.70 7.07 183.06 C 6.59 197.67 7.36 212.29 6.89 226.90 C 62.29 226.95 117.70 226.95 173.11 226.90 C 172.75 206.27 173.00 185.63 172.92 164.99 C 173.03 131.02 172.73 97.04 173.06 63.07 C 117.67 63.01 62.29 63.00 6.91 63.08 Z" />
</g>
</svg>
