<?xml version="1.0" encoding="UTF-8" ?>
<!DOCTYPE svg PUBLIC "-//W3C//DTD SVG 1.1//EN" "http://www.w3.org/Graphics/SVG/1.1/DTD/svg11.dtd">
<svg width="438pt" height="128pt" viewBox="0 0 438 128" version="1.1" xmlns="http://www.w3.org/2000/svg">
<g id="#44af35ff">
<path fill="#44af35" opacity="1.00" d=" M 17.48 1.67 C 19.29 1.28 21.16 1.28 23.00 1.24 C 51.00 1.27 79.01 1.24 107.01 1.25 C 113.14 1.08 119.38 3.93 123.03 8.91 C 126.02 12.55 126.98 17.39 127.00 21.99 C 127.00 49.67 126.99 77.36 127.01 105.04 C 127.04 110.80 125.65 117.10 121.04 120.96 C 117.20 125.02 111.47 126.52 106.04 126.50 C 78.05 126.47 50.07 126.54 22.09 126.47 C 15.45 126.57 9.14 123.04 5.36 117.68 C 3.03 114.26 2.47 110.02 2.50 105.99 C 2.53 77.33 2.46 48.68 2.53 20.03 C 2.15 11.22 9.16 3.59 17.48 1.67 M 23.32 32.29 C 17.51 37.59 13.30 44.98 13.12 52.98 C 12.34 63.64 19.48 73.18 28.01 78.79 C 26.70 82.56 25.47 86.36 24.14 90.13 C 28.49 87.86 32.90 85.72 37.27 83.51 C 42.55 84.80 47.98 85.22 53.40 85.38 C 52.45 80.13 52.09 74.64 53.59 69.46 C 57.79 55.27 73.40 46.57 87.76 48.51 C 86.28 44.49 84.72 40.41 81.98 37.05 C 68.25 19.86 39.64 17.49 23.32 32.29 M 61.39 60.48 C 55.76 66.54 53.34 75.40 55.61 83.43 C 57.70 89.98 62.28 95.69 68.28 99.06 C 76.94 104.25 87.72 104.72 97.29 102.02 C 100.83 103.96 104.46 105.76 107.85 107.96 C 106.66 104.79 105.70 101.54 104.74 98.29 C 110.63 93.19 116.85 87.12 117.61 78.91 C 118.40 67.77 110.44 57.60 100.55 53.29 C 87.72 47.67 71.05 49.90 61.39 60.48 Z" />
<path fill="#44af35" opacity="1.00" d=" M 35.49 38.73 C 38.01 37.70 41.97 38.18 42.49 41.41 C 43.93 45.46 38.75 49.13 35.30 46.64 C 31.55 45.40 31.91 39.96 35.49 38.73 Z" />
<path fill="#44af35" opacity="1.00" d=" M 58.90 41.20 C 60.76 37.35 66.01 37.64 68.60 40.56 C 68.27 42.43 68.79 44.80 67.07 46.11 C 63.99 49.46 56.88 45.64 58.90 41.20 Z" />
<path fill="#44af35" opacity="1.00" d=" M 73.37 66.30 C 74.57 64.91 76.53 65.25 78.16 65.07 C 79.13 66.15 80.11 67.23 81.09 68.31 C 80.04 70.63 77.88 73.10 75.03 72.02 C 72.44 71.67 71.22 67.91 73.37 66.30 Z" />
<path fill="#44af35" opacity="1.00" d=" M 95.26 65.24 C 97.65 64.42 101.32 66.20 100.97 69.03 C 100.56 72.21 95.89 73.26 93.79 71.09 C 91.82 69.44 92.80 65.90 95.26 65.24 Z" />
</g>
<g id="#231815ff">
<path fill="#231815" opacity="1.00" d=" M 264.07 5.69 C 267.20 5.22 270.32 4.39 273.52 4.39 C 274.94 6.61 275.85 9.09 276.90 11.50 C 282.52 11.51 288.13 11.50 293.75 11.50 C 293.75 13.92 293.75 16.33 293.75 18.75 C 279.00 18.75 264.25 18.76 249.50 18.75 C 249.49 16.33 249.50 13.92 249.50 11.51 C 255.19 11.50 260.88 11.52 266.57 11.48 C 265.75 9.54 264.92 7.61 264.07 5.69 Z" />
<path fill="#231815" opacity="1.00" d=" M 328.50 4.00 C 331.66 4.00 334.83 4.00 338.00 4.00 C 338.00 6.67 338.00 9.33 338.00 12.00 C 346.25 12.00 354.50 12.00 362.75 12.00 C 362.75 14.59 362.75 17.17 362.75 19.75 C 354.50 19.75 346.25 19.75 338.00 19.75 C 338.00 22.09 338.00 24.42 338.00 26.76 C 343.93 26.75 349.85 26.75 355.78 26.75 C 355.57 30.02 356.49 33.69 354.48 36.57 C 351.06 42.23 346.56 47.14 341.88 51.77 C 349.01 54.46 356.47 56.07 364.02 57.02 C 362.25 59.88 360.58 62.81 359.04 65.80 C 350.11 64.31 341.38 61.65 333.28 57.56 C 324.97 61.62 316.07 64.39 306.97 66.00 C 305.45 63.27 303.83 60.59 302.02 58.04 C 310.00 57.06 317.85 55.07 325.19 51.76 C 320.74 47.60 316.58 43.13 312.92 38.26 C 314.76 37.10 316.60 35.93 318.44 34.77 C 315.04 34.75 311.64 34.75 308.25 34.75 C 308.25 32.08 308.24 29.42 308.25 26.75 C 315.00 26.75 321.75 26.75 328.50 26.75 C 328.50 24.42 328.49 22.09 328.50 19.75 C 320.25 19.75 312.00 19.75 303.75 19.75 C 303.75 17.17 303.75 14.59 303.75 12.00 C 312.00 12.00 320.25 12.00 328.50 12.00 C 328.50 9.33 328.49 6.67 328.50 4.00 M 320.72 34.76 C 324.37 39.34 328.62 43.37 333.23 46.97 C 337.67 43.47 341.60 39.40 344.83 34.76 C 336.79 34.74 328.76 34.75 320.72 34.76 Z" />
<path fill="#231815" opacity="1.00" d=" M 385.64 3.83 C 388.39 4.54 391.16 5.23 393.92 5.92 C 392.37 10.88 389.25 15.55 389.47 20.91 C 389.53 35.77 389.49 50.64 389.50 65.50 C 386.50 65.50 383.50 65.50 380.50 65.50 C 380.51 55.20 380.46 44.90 380.53 34.59 C 378.80 37.17 377.06 39.73 375.28 42.27 C 374.40 38.44 373.49 34.61 372.64 30.78 C 377.89 22.27 382.37 13.29 385.64 3.83 Z" />
<path fill="#231815" opacity="1.00" d=" M 160.28 18.35 C 164.58 13.92 168.72 9.33 172.45 4.40 C 174.50 5.76 176.55 7.11 178.62 8.44 C 178.54 8.90 178.38 9.84 178.30 10.30 C 180.03 10.27 181.76 10.25 183.50 10.23 C 183.50 13.82 183.50 17.41 183.50 20.99 C 184.12 21.00 185.37 21.00 186.00 21.00 C 186.00 15.59 186.00 10.17 186.00 4.75 C 188.08 4.75 190.16 4.75 192.25 4.76 C 192.25 10.17 192.25 15.59 192.25 21.00 C 192.88 21.00 194.12 21.00 194.75 21.00 C 194.75 17.42 194.75 13.84 194.75 10.25 C 196.75 10.25 198.75 10.25 200.75 10.25 C 200.75 15.26 200.73 20.26 200.78 25.27 C 203.80 18.55 205.89 11.45 207.35 4.24 C 209.84 4.77 212.34 5.29 214.84 5.82 C 214.06 8.83 213.20 11.81 212.27 14.77 C 216.02 14.75 219.76 14.75 223.51 14.76 C 223.51 17.12 223.50 19.48 223.45 21.84 C 220.48 22.54 221.18 25.80 220.78 28.06 C 220.20 35.35 218.47 42.50 215.93 49.35 C 218.22 52.32 220.80 55.06 223.64 57.52 C 222.33 60.29 221.12 63.10 220.09 65.98 C 217.24 63.22 214.49 60.36 211.95 57.31 C 209.59 60.49 206.98 63.47 204.04 66.12 C 202.99 63.95 201.97 61.77 200.94 59.59 C 198.61 61.35 196.29 63.12 194.00 64.93 C 192.95 63.48 191.91 62.04 190.88 60.58 C 192.34 56.37 192.03 51.88 192.00 47.51 C 190.04 47.50 188.09 47.49 186.13 47.48 C 186.35 54.12 184.64 60.97 179.75 65.72 C 178.14 63.92 176.50 62.13 174.85 60.36 C 180.32 55.37 179.45 47.67 179.80 41.00 C 186.03 41.00 192.27 41.00 198.50 41.00 C 198.51 45.31 198.52 49.62 198.46 53.93 C 199.87 52.82 201.30 51.72 202.75 50.63 C 202.89 52.31 203.03 53.99 203.16 55.66 C 204.61 53.50 206.08 51.35 207.54 49.20 C 205.81 43.71 204.67 38.06 204.09 32.34 C 203.63 33.03 202.72 34.43 202.26 35.13 C 201.10 32.46 199.91 29.80 199.10 27.00 C 192.29 27.00 185.48 27.00 178.68 27.00 C 176.86 30.13 173.73 32.99 174.22 36.93 C 174.25 46.62 174.26 56.31 174.25 66.00 C 171.75 66.00 169.25 66.00 166.75 66.00 C 166.76 58.59 166.72 51.18 166.78 43.76 C 165.50 45.09 164.22 46.41 162.93 47.73 C 162.06 44.78 161.05 41.88 159.98 39.00 C 164.72 33.47 168.96 27.52 172.69 21.26 C 174.30 22.43 175.91 23.59 177.52 24.76 C 177.49 20.16 177.50 15.56 177.50 10.95 C 173.53 16.02 169.35 20.93 164.74 25.43 C 163.28 23.06 161.82 20.68 160.28 18.35 M 209.13 22.52 C 209.46 28.32 210.27 34.07 211.54 39.74 C 213.19 34.13 213.99 28.32 214.22 22.49 C 212.53 22.50 210.83 22.51 209.13 22.52 Z" />
<path fill="#231815" opacity="1.00" d=" M 242.22 4.35 C 245.01 5.13 247.81 5.90 250.60 6.66 C 248.80 12.72 245.42 18.54 245.72 25.02 C 245.79 38.60 245.74 52.18 245.75 65.75 C 243.08 65.75 240.42 65.75 237.75 65.75 C 237.74 56.68 237.77 47.61 237.73 38.55 C 236.26 41.04 234.82 43.55 233.36 46.05 C 232.87 41.89 230.92 37.69 231.62 33.50 C 236.10 24.15 239.57 14.36 242.22 4.35 Z" />
<path fill="#231815" opacity="1.00" d=" M 417.75 4.76 C 420.66 4.75 423.58 4.75 426.50 4.75 C 426.50 8.42 426.50 12.08 426.50 15.75 C 429.50 15.75 432.50 15.75 435.50 15.76 C 435.50 18.59 435.50 21.42 435.50 24.25 C 432.50 24.25 429.50 24.25 426.50 24.25 C 426.44 35.20 426.62 46.15 426.44 57.10 C 426.40 60.74 423.85 64.47 420.04 64.84 C 415.35 65.16 410.64 65.11 405.95 65.29 C 405.28 62.24 404.56 59.21 403.74 56.20 C 407.65 56.44 411.65 57.24 415.54 56.43 C 417.76 55.73 417.97 53.04 418.00 51.08 C 418.03 42.14 417.98 33.19 418.00 24.25 C 409.41 24.25 400.83 24.25 392.25 24.25 C 392.24 21.42 392.24 18.59 392.25 15.75 C 400.75 15.76 409.25 15.75 417.75 15.75 C 417.75 12.09 417.75 8.42 417.75 4.76 Z" />
<path fill="#231815" opacity="1.00" d=" M 252.25 22.00 C 264.91 22.00 277.58 22.00 290.25 22.00 C 290.25 24.33 290.25 26.67 290.25 29.00 C 277.58 29.00 264.91 29.00 252.25 29.00 C 252.24 26.67 252.24 24.33 252.25 22.00 Z" />
<path fill="#231815" opacity="1.00" d=" M 394.62 32.44 C 396.81 30.96 399.00 29.48 401.18 27.99 C 404.99 33.09 408.88 38.13 412.58 43.32 C 410.11 44.93 407.62 46.52 405.15 48.12 C 401.94 42.70 398.38 37.50 394.62 32.44 Z" />
<path fill="#231815" opacity="1.00" d=" M 178.00 31.00 C 185.39 31.00 192.78 30.99 200.17 31.01 C 200.21 33.00 200.25 35.00 200.28 37.00 C 192.85 37.00 185.43 37.00 178.00 37.00 C 178.00 35.00 178.00 33.00 178.00 31.00 Z" />
<path fill="#231815" opacity="1.00" d=" M 252.25 32.25 C 264.91 32.25 277.58 32.25 290.25 32.25 C 290.25 34.42 290.25 36.59 290.25 38.75 C 277.58 38.75 264.91 38.75 252.25 38.75 C 252.24 36.58 252.24 34.42 252.25 32.25 Z" />
<path fill="#231815" opacity="1.00" d=" M 252.25 42.25 C 264.91 42.25 277.58 42.25 290.25 42.25 C 290.25 50.09 290.25 57.92 290.25 65.75 C 287.33 65.75 284.42 65.75 281.51 65.76 C 281.50 65.01 281.49 63.50 281.48 62.75 C 274.58 62.75 267.67 62.75 260.77 62.75 C 260.76 63.51 260.74 65.01 260.73 65.76 C 257.90 65.75 255.07 65.75 252.25 65.75 C 252.25 57.92 252.25 50.08 252.25 42.25 M 260.76 49.75 C 260.75 51.75 260.75 53.75 260.75 55.75 C 267.67 55.75 274.58 55.75 281.50 55.75 C 281.50 53.75 281.49 51.75 281.50 49.75 C 274.58 49.75 267.67 49.75 260.76 49.75 Z" />
<path fill="#231815" opacity="1.00" d=" M 268.25 81.25 C 269.49 81.25 270.74 81.25 272.00 81.25 C 272.00 85.35 272.02 89.45 271.94 93.55 C 275.65 88.59 285.39 87.78 287.43 94.59 C 288.67 101.05 287.71 107.71 288.00 114.25 C 286.74 114.25 285.49 114.25 284.25 114.25 C 283.92 107.97 284.98 101.54 283.65 95.37 C 281.25 90.09 272.58 92.86 272.22 98.18 C 271.69 103.51 272.13 108.90 272.00 114.25 C 270.75 114.25 269.49 114.25 268.25 114.25 C 268.25 103.25 268.25 92.25 268.25 81.25 Z" />
<path fill="#231815" opacity="1.00" d=" M 166.61 81.54 C 167.56 81.52 169.44 81.49 170.38 81.48 C 172.66 91.71 176.00 101.72 177.52 112.10 C 179.76 101.59 183.17 91.34 186.37 81.08 C 188.03 84.18 187.85 87.66 186.61 90.85 C 184.15 98.73 181.77 106.63 179.34 114.52 C 178.43 114.51 176.62 114.50 175.71 114.49 C 172.69 103.50 169.63 92.53 166.61 81.54 Z" />
<path fill="#231815" opacity="1.00" d=" M 188.20 87.53 C 187.41 85.33 188.57 83.29 189.54 81.38 C 192.40 91.58 195.81 101.71 197.58 112.17 C 199.36 101.79 202.69 91.75 205.07 81.49 C 206.41 81.50 207.74 81.50 209.08 81.51 C 205.92 92.50 202.78 103.50 199.65 114.50 C 198.44 114.50 197.23 114.50 196.01 114.51 C 193.45 105.50 190.54 96.59 188.20 87.53 Z" />
<path fill="#231815" opacity="1.00" d=" M 348.50 81.51 C 354.57 81.75 360.79 80.82 366.75 82.28 C 373.84 84.00 376.11 94.86 369.99 99.02 C 364.62 102.35 357.96 100.58 352.00 100.99 C 352.00 105.50 352.00 110.00 352.00 114.50 C 351.12 114.50 349.37 114.50 348.50 114.50 C 348.50 103.50 348.50 92.51 348.50 81.51 M 352.00 84.76 C 352.00 89.09 352.00 93.42 352.00 97.75 C 356.59 97.57 361.34 98.37 365.80 96.97 C 370.63 95.46 371.12 87.73 366.42 85.72 C 361.81 84.06 356.79 84.94 352.00 84.76 Z" />
<path fill="#231815" opacity="1.00" d=" M 324.75 84.06 C 325.90 83.40 327.07 82.75 328.24 82.10 C 328.24 84.90 328.25 87.70 328.25 90.50 C 329.75 90.50 331.25 90.50 332.75 90.50 C 332.75 91.19 332.75 92.56 332.75 93.25 C 331.25 93.25 329.75 93.25 328.25 93.25 C 328.33 99.42 327.99 105.60 328.54 111.76 C 330.51 112.15 332.61 112.44 334.07 114.00 C 331.18 114.53 326.41 115.66 325.15 111.94 C 324.26 105.77 324.96 99.48 324.76 93.26 C 323.94 93.26 322.32 93.25 321.50 93.24 C 321.50 92.56 321.50 91.19 321.49 90.51 C 322.31 90.51 323.94 90.50 324.75 90.50 C 324.75 88.35 324.74 86.20 324.75 84.06 Z" />
<path fill="#231815" opacity="1.00" d=" M 215.36 95.41 C 218.41 89.12 228.09 88.12 232.72 93.16 C 235.20 95.98 235.40 99.93 235.94 103.46 C 229.67 103.56 223.39 103.42 217.12 103.58 C 217.86 106.72 218.72 110.66 222.32 111.65 C 226.45 113.28 230.63 110.68 232.26 106.85 C 233.47 107.21 234.67 107.58 235.88 107.96 C 233.14 116.13 221.31 117.02 216.13 110.90 C 212.94 106.47 213.08 100.21 215.36 95.41 M 220.50 94.54 C 218.53 95.85 218.18 98.40 217.29 100.42 C 222.28 100.56 227.28 100.51 232.27 100.48 C 231.63 98.63 231.29 96.56 229.96 95.05 C 227.47 92.59 223.26 92.49 220.50 94.54 Z" />
<path fill="#231815" opacity="1.00" d=" M 243.21 95.32 C 245.78 89.46 254.29 88.11 259.05 92.06 C 260.48 93.37 261.31 95.17 262.33 96.80 C 261.18 97.19 260.03 97.58 258.88 97.97 C 257.58 96.05 256.42 93.58 253.92 93.05 C 251.04 92.02 247.53 93.55 246.43 96.42 C 244.94 100.22 244.89 104.71 246.50 108.48 C 248.09 111.97 252.85 112.83 256.01 111.07 C 257.86 109.93 258.17 107.56 259.04 105.73 C 260.24 106.04 261.45 106.36 262.65 106.68 C 261.56 109.54 260.44 112.98 257.20 114.02 C 252.39 115.75 245.61 114.69 243.21 109.65 C 241.12 105.22 241.20 99.78 243.21 95.32 Z" />
<path fill="#231815" opacity="1.00" d=" M 295.26 96.57 C 296.67 93.66 298.67 90.62 302.12 90.05 C 306.71 89.15 313.52 89.37 315.08 94.82 C 316.23 101.40 314.67 108.23 316.40 114.78 C 314.49 114.40 312.91 113.43 312.01 111.68 C 308.05 114.99 302.05 116.17 297.47 113.48 C 293.34 110.75 294.60 103.77 299.08 102.08 C 303.38 100.60 308.06 100.69 312.39 99.28 C 311.67 97.31 311.79 94.42 309.50 93.50 C 307.45 92.75 305.19 92.84 303.07 93.16 C 300.72 93.54 299.78 96.00 298.52 97.68 C 297.70 97.40 296.07 96.84 295.26 96.57 M 300.70 104.76 C 298.30 105.76 297.73 109.54 300.10 110.90 C 303.13 112.56 307.16 111.89 309.80 109.77 C 311.98 107.93 311.82 104.84 312.26 102.27 C 308.45 103.31 304.39 103.33 300.70 104.76 Z" />
<path fill="#231815" opacity="1.00" d=" M 379.93 96.47 C 381.52 93.61 383.59 90.46 387.15 90.00 C 391.52 89.27 397.73 89.34 399.67 94.20 C 401.14 100.81 399.31 107.76 401.24 114.35 C 400.44 114.31 398.85 114.22 398.05 114.18 C 397.83 113.48 397.40 112.07 397.19 111.36 C 393.09 114.98 386.54 116.39 381.84 113.15 C 378.07 110.18 379.62 103.64 383.96 102.04 C 388.18 100.58 392.79 100.72 397.05 99.31 C 396.48 97.34 396.56 94.70 394.50 93.60 C 390.34 91.84 384.83 93.01 383.30 97.71 C 382.46 97.40 380.77 96.78 379.93 96.47 M 384.96 105.00 C 382.63 106.17 382.67 109.86 384.97 111.03 C 387.82 112.42 391.52 111.89 394.07 110.07 C 396.54 108.27 396.60 105.00 397.12 102.27 C 393.10 103.33 388.74 103.18 384.96 105.00 Z" />
<path fill="#231815" opacity="1.00" d=" M 406.29 90.23 C 407.61 90.24 408.94 90.25 410.28 90.26 C 412.55 96.97 414.94 103.64 417.35 110.30 C 419.78 103.61 422.30 96.94 424.75 90.25 C 426.00 90.25 427.25 90.26 428.50 90.27 C 425.01 99.12 421.63 108.02 417.77 116.71 C 416.73 118.90 415.57 121.41 413.13 122.31 C 411.21 122.58 409.28 122.22 407.38 122.09 C 407.45 121.55 407.60 120.47 407.68 119.93 C 409.50 119.54 412.00 120.05 413.15 118.17 C 414.18 116.73 414.85 115.08 415.62 113.49 C 412.46 105.76 409.41 97.98 406.29 90.23 Z" />
</g>
</svg>
